PathFileType	4	(X/Y/Z)	C:/Users/beibeiliu/ov580/test_trc/User2\sequence.16_training_dense_left.trc
DataRate	CameraRate	NumFrames	NumMarkers	Units	OrigDataRate	OrigDataStartFrame	OrigNumFrames
120	120	14	19	mm	120	1	411
Frame#	Time	ThumbCMC			ThumbMCP			ThumbIP			ThumbTip			IndexMCP			IndexPIP			IndexTip			MiddleMCP			MiddlePIP			MiddleTip			RingMCP			RingPIP			RingTip			PinkyMCP			PinkyPIP			PinkyTip			BackHand1			BackHand2			BackHand3	
		X0	Y0	Z0	X1	Y1	Z1	X2	Y2	Z2	X3	Y3	Z3	X4	Y4	Z4	X5	Y5	Z5	X6	Y6	Z6	X7	Y7	Z7	X8	Y8	Z8	X9	Y9	Z9	X10	Y10	Z10	X11	Y11	Z11	X12	Y12	Z12	X13	Y13	Z13	X14	Y14	Z14	X15	Y15	Z15	X16	Y16	Z16	X17	Y17	Z17	X18	Y18	Z18	
0	0	-183.235	33.0504	54.0136	-181.28	46.4724	27.2894	-178.091	58.6137	-6.15082	-168.252	67.9809	-30.9094	-131.942	2.16715	-7.5214	-118.641	0.12472	-32.1327	-98.5061	-3.35035	-59.2848	-99.3487	4.41306	0.89357	-76.2845	32.4361	5.14414	-99.1006	45.1374	36.5673	-83.4382	1.93956	16.9285	-69.3319	27.0722	22.1806	-94.8661	36.5374	47.8214	-75.2601	-6.60417	42.1706	-64.6521	22.0573	43.3092	-92.0879	34.2994	58.7619	-131.761	-22.8665	53.8513	-155.829	-22.9024	85.0439	-166.647	-4.64608	50.4879	
1	0.00833333	-182.272	29.6678	54.4354	-185.053	42.7387	27.0992	-178.728	53.297	-2.95702	-173.288	64.8366	-29.4012	-133.741	-0.376985	-8.41179	-119.685	-3.88139	-35.0439	-102.015	-5.82333	-59.9738	-100.59	5.64034	-2.13299	-80.6853	32.0533	0.478059	-102.302	45.1932	35.143	-83.392	-0.630463	18.2739	-73.2038	28.7749	19.2082	-100.911	36.5308	47.9897	-80.4144	-6.30718	41.051	-67.3676	27.5102	41.1148	-90.5599	37.3226	58.625	-130.788	-23.5305	58.9684	-153.361	-24.4814	83.4501	-165.841	-5.8253	50.4095	
2	0.0166667	-184.125	29.6976	57.8777	-187.204	41.9925	31.9651	-184.504	53.5972	-5.79543	-179.507	63.565	-23.7331	-139.669	0.454268	-13.9883	-125.931	-4.30829	-33.6457	-114.218	-5.35776	-60.0376	-105.102	2.14933	-0.832837	-84.934	32.1789	-1.60423	-104.968	47.3403	29.7078	-91.5084	0.125961	14.0222	-77.5282	31.3493	18.0435	-100.734	36.8489	45.0995	-80.0436	-6.86861	37.7313	-68.1397	25.8511	36.5301	-91.7568	36.1654	53.8555	-130.831	-24.3608	58.7984	-152.176	-22.6198	84.4601	-167.064	-6.82748	55.1249	
3	0.025	-186.551	31.5877	54.6395	-187.849	43.1207	31.7253	-187.608	54.8956	-1.1307	-185.606	66.0856	-20.9414	-143.872	-0.535847	-11.5609	-135.44	-4.26721	-38.777	-119.705	-8.69893	-57.3369	-112.931	2.35791	-2.69529	-89.4998	32.6326	-3.80153	-107.329	45.464	28.9926	-94.4753	0.858981	9.76262	-79.9958	29.4256	13.5494	-100.654	39.6473	37.7684	-87.6208	-5.50002	34.3512	-73.1468	25.178	28.2277	-92.7894	39.6199	50.1474	-132.429	-21.6184	55.8615	-149.646	-23.363	86.2924	-169.114	-5.29694	53.636	
4	0.0333333	-185.169	34.2003	62.8739	-190.448	46.7645	32.8273	-193.433	59.7923	2.32894	-190.689	70.0024	-20.7186	-154.227	2.64883	-8.60599	-145.014	-2.94338	-32.8398	-134.672	-7.18859	-59.2257	-117.547	4.41443	-9.20818	-97.3568	34.3839	-6.86267	-110.24	47.3094	24.421	-96.8834	-1.50116	10.9735	-85.3559	29.7336	9.42495	-104.878	36.6079	38.8513	-85.7581	-6.61319	32.6087	-77.2415	22.5736	23.7642	-94.3065	39.5957	47.1582	-135.959	-21.6879	57.1679	-154.889	-18.6818	84.3381	-170.618	-2.2551	56.7155	
5	0.0416667	-185.078	38.3602	61.7492	-191.001	51.4045	37.1897	-192.655	62.7259	3.11965	-192.455	74.7795	-19.056	-161.655	7.05093	-6.38104	-150.214	-1.97325	-34.71	-145.014	-4.54108	-58.8303	-121.571	3.69577	-6.89565	-101.758	31.6241	-11.2894	-112.014	45.5292	24.5546	-102.356	-1.77996	8.90887	-87.4611	27.5897	7.86958	-103.684	37.4362	35.6933	-93.3101	-7.29753	28.6768	-80.3566	19.6358	19.4221	-94.1527	37.0492	44.2972	-143.196	-16.7287	59.6975	-155.135	-15.6967	88.6143	-176.223	3.78472	59.1875	
6	0.05	-186.987	45.8197	64.9082	-192.562	59.8439	39.4759	-191.762	71.7935	11.2701	-190.684	80.7747	-13.3005	-165.02	8.8389	-7.95338	-163.669	7.06129	-31.1322	-155.663	-0.0766776	-58.0528	-128.283	4.86595	-7.93713	-108.263	29.5898	-15.6661	-115.267	48.6045	22.2309	-114.4	0.288916	6.41741	-93.3279	24.6231	1.96176	-110.027	39.2693	34.0915	-97.6662	-8.70273	26.4626	-83.1265	21.4708	17.2821	-95.1026	37.5572	41.0199	-146.947	-11.0169	60.3602	-156.777	-12.5511	91.7694	-177.787	6.38558	63.981	
7	0.0583333	-185.799	54.4438	73.313	-190.297	69.7736	46.9229	-194.118	82.1004	11.5521	-192.659	93.1096	-9.48422	-175.518	17.6301	-5.02951	-175.52	15.231	-34.4826	-169.936	8.87146	-57.7545	-139.464	9.04084	-9.8018	-115.347	29.9281	-18.5271	-120.633	51.9485	18.1305	-122.927	2.21312	2.31346	-98.2861	23.0736	-1.55363	-107.925	38.6639	28.7576	-106.123	-9.36485	19.5772	-90.1483	15.7809	9.37304	-97.5443	37.4367	36.6664	-148.615	-10.7741	61.2739	-159.099	-8.16596	90.1827	-182.951	14.9357	64.7708	
8	0.0666667	-181.164	63.0673	73.8856	-185.667	78.9204	48.677	-188.873	92.148	19.3006	-189.745	103.312	-6.9085	-184.661	29.4503	-0.341072	-188.527	26.5291	-32.4589	-189.267	26.5221	-61.3658	-153.293	14.6525	-8.72456	-122.114	33.0808	-21.0943	-120.784	52.1946	12.8918	-132.126	4.41422	-2.35527	-108.049	23.44	-8.94666	-114.852	41.5342	23.9733	-117.965	-8.47354	18.6208	-99.3637	14.2224	1.80301	-97.961	37.264	28.1697	-155.805	-3.3054	57.7133	-161.194	-2.44141	92.6146	-182.187	23.961	68.4374	
9	0.075	-176.59	67.9355	77.8192	-184.677	89.7878	52.5367	-189.717	105.342	25.3243	-186.235	113.474	1.49221	-192.225	40.1656	0.465419	-196.657	36.7438	-25.0417	-201.107	35.9405	-55.0919	-163.938	21.3774	-12.0093	-135.953	37.2793	-27.8417	-124.405	54.24	5.9128	-145.489	10.265	-6.94594	-118.28	22.4073	-16.3405	-116.464	41.4304	16.7599	-131.514	-2.88774	14.5749	-107.456	15.9086	-3.83797	-103.504	36.2012	20.1361	-160.551	-1.2654	57.3096	-164.932	0.972186	87.63	-184.761	31.4453	70.7171	
10	0.0833333	-174.664	74.4049	77.067	-178.57	93.9164	54.8745	-183.57	110.908	25.4177	-184.453	122.698	1.54944	-195.944	46.9371	1.41218	-204.783	49.49	-23.477	-210.144	46.9899	-54.3902	-172.019	25.4475	-13.2967	-145.68	37.5133	-30.1095	-126.242	51.0074	2.64705	-152.688	7.888	-5.71039	-129.126	22.1778	-20.7478	-120.117	41.7538	12.265	-141.385	-1.39238	11.5826	-117.967	14.4871	-9.2817	-108.291	32.9897	14.8683	-166.612	3.11502	57.0245	-167.885	6.06677	86.0903	-185.676	35.648	71.034	
11	0.0916667	-164.622	75.9665	79.3813	-170.006	100.588	56.4137	-174.587	116.731	26.7949	-173.077	124.027	3.34103	-199.758	57.1928	3.8826	-209.98	59.8623	-22.5248	-215.784	58.673	-47.1946	-181.214	30.3201	-9.13483	-152.177	35.8824	-31.7621	-129.869	50.4815	1.03357	-165.379	11.1525	-4.05925	-142.605	22.2552	-23.4389	-123.063	35.2522	5.07773	-154.069	0.164073	5.61455	-132.177	10.2262	-11.9987	-111.973	26.1485	12.1338	-175.527	7.01218	55.9456	-172.534	7.7779	88.8221	-185.047	45.775	70.5883	
12	0.1	-159.044	76.6248	75.0446	-157.39	95.6683	52.6317	-161.112	117.294	24.0645	-161.491	127.795	1.94841	-200.907	66.6102	6.21641	-211.874	72.4109	-17.5906	-219.169	72.0873	-42.141	-188.568	37.3928	-9.44898	-159.853	36.1975	-32.061	-133.342	42.9937	-5.2815	-175.682	11.8573	-4.91683	-149.968	22.0025	-23.723	-130.046	30.307	4.73184	-164.92	-3.55067	9.98521	-143.675	4.05771	-13.5366	-120.084	20.1474	8.85289	-180.85	16.2477	55.4603	-175.854	14.8979	91.8202	-182.03	49.5808	74.1415	
13	0.108333	-148.365	77.3788	76.7943	-148.226	97.6607	49.8833	-150.971	114.29	20.1121	-149.028	124.182	-2.48172	-197.28	68.6035	10.8163	-209.97	77.3375	-12.1653	-220.937	81.3772	-42.4614	-193.501	40.3116	-9.2904	-166.313	37.1615	-32.1872	-137.786	39.5883	-7.46508	-183.762	17.208	-5.71112	-160.675	16.6796	-23.6463	-136.484	25.0281	2.81349	-177.209	1.12901	7.28416	-150.71	2.08794	-13.3801	-129.487	13.3139	6.99174	-185.117	19.4346	57.0173	-181.053	18.9935	91.1253	-181.045	54.0083	77.5765	
